<?xml version="1.0" encoding="UTF-8" standalone="no"?>
<!DOCTYPE svg PUBLIC "-//W3C//DTD SVG 1.1//EN"
 "http://www.w3.org/Graphics/SVG/1.1/DTD/svg11.dtd">
<!-- Generated by graphviz version 2.40.1 (20161225.0304)
 -->
<!-- Title: G Pages: 1 -->
<svg width="1220pt" height="277pt"
 viewBox="0.00 0.00 1219.77 277.30" xmlns="http://www.w3.org/2000/svg" xmlns:xlink="http://www.w3.org/1999/xlink">
<g id="graph0" class="graph" transform="scale(1 1) rotate(0) translate(21.6 255.6986)">
<title>G</title>
<polygon fill="#111111" stroke="transparent" points="-21.6,21.6 -21.6,-255.6986 1198.1674,-255.6986 1198.1674,21.6 -21.6,21.6"/>
<!-- components/select.tsx -->
<g id="node1" class="node">
<title>components/select.tsx</title>
<path fill="none" stroke="#cfffac" d="M254.2337,-213.1482C254.2337,-213.1482 116.3444,-213.1482 116.3444,-213.1482 112.3115,-213.1482 108.2785,-209.1152 108.2785,-205.0823 108.2785,-205.0823 108.2785,-197.0164 108.2785,-197.0164 108.2785,-192.9834 112.3115,-188.9505 116.3444,-188.9505 116.3444,-188.9505 254.2337,-188.9505 254.2337,-188.9505 258.2667,-188.9505 262.2996,-192.9834 262.2996,-197.0164 262.2996,-197.0164 262.2996,-205.0823 262.2996,-205.0823 262.2996,-209.1152 258.2667,-213.1482 254.2337,-213.1482"/>
<text text-anchor="middle" x="185.2891" y="-197.8986" font-family="Arial" font-size="14.00" fill="#cfffac">components/select.tsx</text>
</g>
<!-- components/slider.tsx -->
<g id="node2" class="node">
<title>components/slider.tsx</title>
<path fill="none" stroke="#cfffac" d="M252.3438,-171.1482C252.3438,-171.1482 118.2344,-171.1482 118.2344,-171.1482 114.2014,-171.1482 110.1685,-167.1152 110.1685,-163.0823 110.1685,-163.0823 110.1685,-155.0164 110.1685,-155.0164 110.1685,-150.9834 114.2014,-146.9505 118.2344,-146.9505 118.2344,-146.9505 252.3438,-146.9505 252.3438,-146.9505 256.3767,-146.9505 260.4097,-150.9834 260.4097,-155.0164 260.4097,-155.0164 260.4097,-163.0823 260.4097,-163.0823 260.4097,-167.1152 256.3767,-171.1482 252.3438,-171.1482"/>
<text text-anchor="middle" x="185.2891" y="-155.8986" font-family="Arial" font-size="14.00" fill="#cfffac">components/slider.tsx</text>
</g>
<!-- components/toggle.tsx -->
<g id="node3" class="node">
<title>components/toggle.tsx</title>
<path fill="none" stroke="#cfffac" d="M255.3052,-129.1482C255.3052,-129.1482 115.2729,-129.1482 115.2729,-129.1482 111.24,-129.1482 107.207,-125.1152 107.207,-121.0823 107.207,-121.0823 107.207,-113.0164 107.207,-113.0164 107.207,-108.9834 111.24,-104.9505 115.2729,-104.9505 115.2729,-104.9505 255.3052,-104.9505 255.3052,-104.9505 259.3382,-104.9505 263.3711,-108.9834 263.3711,-113.0164 263.3711,-113.0164 263.3711,-121.0823 263.3711,-121.0823 263.3711,-125.1152 259.3382,-129.1482 255.3052,-129.1482"/>
<text text-anchor="middle" x="185.2891" y="-113.8986" font-family="Arial" font-size="14.00" fill="#cfffac">components/toggle.tsx</text>
</g>
<!-- cube&#45;box.ts -->
<g id="node4" class="node">
<title>cube&#45;box.ts</title>
<path fill="none" stroke="#c6c5fe" d="M221.596,-87.1482C221.596,-87.1482 148.9821,-87.1482 148.9821,-87.1482 144.9492,-87.1482 140.9162,-83.1152 140.9162,-79.0823 140.9162,-79.0823 140.9162,-71.0164 140.9162,-71.0164 140.9162,-66.9834 144.9492,-62.9505 148.9821,-62.9505 148.9821,-62.9505 221.596,-62.9505 221.596,-62.9505 225.629,-62.9505 229.6619,-66.9834 229.6619,-71.0164 229.6619,-71.0164 229.6619,-79.0823 229.6619,-79.0823 229.6619,-83.1152 225.629,-87.1482 221.596,-87.1482"/>
<text text-anchor="middle" x="185.2891" y="-71.8986" font-family="Arial" font-size="14.00" fill="#c6c5fe">cube&#45;box.ts</text>
</g>
<!-- cube&#45;box/audio&#45;engine.ts -->
<g id="node5" class="node">
<title>cube&#45;box/audio&#45;engine.ts</title>
<path fill="none" stroke="#c6c5fe" d="M767.5651,-150.1482C767.5651,-150.1482 610.2572,-150.1482 610.2572,-150.1482 606.2242,-150.1482 602.1913,-146.1152 602.1913,-142.0823 602.1913,-142.0823 602.1913,-134.0164 602.1913,-134.0164 602.1913,-129.9834 606.2242,-125.9505 610.2572,-125.9505 610.2572,-125.9505 767.5651,-125.9505 767.5651,-125.9505 771.5981,-125.9505 775.631,-129.9834 775.631,-134.0164 775.631,-134.0164 775.631,-142.0823 775.631,-142.0823 775.631,-146.1152 771.5981,-150.1482 767.5651,-150.1482"/>
<text text-anchor="middle" x="688.9111" y="-134.8986" font-family="Arial" font-size="14.00" fill="#c6c5fe">cube&#45;box/audio&#45;engine.ts</text>
</g>
<!-- cube&#45;box.ts&#45;&gt;cube&#45;box/audio&#45;engine.ts -->
<g id="edge1" class="edge">
<title>cube&#45;box.ts&#45;&gt;cube&#45;box/audio&#45;engine.ts</title>
<path fill="none" stroke="#757575" d="M229.7239,-84.823C240.8903,-87.8696 252.7129,-91.617 263.3301,-96.0493 280.4236,-103.1852 281.5854,-111.7355 299.3301,-117.0493 395.9351,-145.9788 511.9409,-148.3619 592.1073,-145.2912"/>
<polygon fill="#757575" stroke="#757575" points="592.3476,-148.7843 602.1924,-144.8689 592.0547,-141.7904 592.3476,-148.7843"/>
</g>
<!-- cube&#45;box/composition&#45;engine.ts -->
<g id="node6" class="node">
<title>cube&#45;box/composition&#45;engine.ts</title>
<path fill="none" stroke="#c6c5fe" d="M504.7664,-108.1482C504.7664,-108.1482 307.5617,-108.1482 307.5617,-108.1482 303.5288,-108.1482 299.4958,-104.1152 299.4958,-100.0823 299.4958,-100.0823 299.4958,-92.0164 299.4958,-92.0164 299.4958,-87.9834 303.5288,-83.9505 307.5617,-83.9505 307.5617,-83.9505 504.7664,-83.9505 504.7664,-83.9505 508.7993,-83.9505 512.8323,-87.9834 512.8323,-92.0164 512.8323,-92.0164 512.8323,-100.0823 512.8323,-100.0823 512.8323,-104.1152 508.7993,-108.1482 504.7664,-108.1482"/>
<text text-anchor="middle" x="406.1641" y="-92.8986" font-family="Arial" font-size="14.00" fill="#c6c5fe">cube&#45;box/composition&#45;engine.ts</text>
</g>
<!-- cube&#45;box.ts&#45;&gt;cube&#45;box/composition&#45;engine.ts -->
<g id="edge2" class="edge">
<title>cube&#45;box.ts&#45;&gt;cube&#45;box/composition&#45;engine.ts</title>
<path fill="none" stroke="#757575" d="M229.7207,-79.2737C247.121,-80.9281 267.9743,-82.9107 289.1511,-84.9241"/>
<polygon fill="#757575" stroke="#757575" points="288.938,-88.4196 299.2244,-85.8819 289.6006,-81.451 288.938,-88.4196"/>
</g>
<!-- cube&#45;box/graphics&#45;engine.ts -->
<g id="node7" class="node">
<title>cube&#45;box/graphics&#45;engine.ts</title>
<path fill="none" stroke="#c6c5fe" d="M493.98,-66.1482C493.98,-66.1482 318.3481,-66.1482 318.3481,-66.1482 314.3151,-66.1482 310.2822,-62.1152 310.2822,-58.0823 310.2822,-58.0823 310.2822,-50.0164 310.2822,-50.0164 310.2822,-45.9834 314.3151,-41.9505 318.3481,-41.9505 318.3481,-41.9505 493.98,-41.9505 493.98,-41.9505 498.013,-41.9505 502.0459,-45.9834 502.0459,-50.0164 502.0459,-50.0164 502.0459,-58.0823 502.0459,-58.0823 502.0459,-62.1152 498.013,-66.1482 493.98,-66.1482"/>
<text text-anchor="middle" x="406.1641" y="-50.8986" font-family="Arial" font-size="14.00" fill="#c6c5fe">cube&#45;box/graphics&#45;engine.ts</text>
</g>
<!-- cube&#45;box.ts&#45;&gt;cube&#45;box/graphics&#45;engine.ts -->
<g id="edge3" class="edge">
<title>cube&#45;box.ts&#45;&gt;cube&#45;box/graphics&#45;engine.ts</title>
<path fill="none" stroke="#757575" d="M229.7207,-70.8249C250.0932,-68.888 275.1991,-66.501 300.0157,-64.1415"/>
<polygon fill="#757575" stroke="#757575" points="300.6199,-67.6 310.2437,-63.1691 299.9573,-60.6314 300.6199,-67.6"/>
</g>
<!-- cube&#45;box/scales.ts -->
<g id="node8" class="node">
<title>cube&#45;box/scales.ts</title>
<path fill="none" stroke="#cfffac" d="M464.0425,-24.1482C464.0425,-24.1482 348.2856,-24.1482 348.2856,-24.1482 344.2527,-24.1482 340.2197,-20.1152 340.2197,-16.0823 340.2197,-16.0823 340.2197,-8.0164 340.2197,-8.0164 340.2197,-3.9834 344.2527,.0495 348.2856,.0495 348.2856,.0495 464.0425,.0495 464.0425,.0495 468.0755,.0495 472.1084,-3.9834 472.1084,-8.0164 472.1084,-8.0164 472.1084,-16.0823 472.1084,-16.0823 472.1084,-20.1152 468.0755,-24.1482 464.0425,-24.1482"/>
<text text-anchor="middle" x="406.1641" y="-8.8986" font-family="Arial" font-size="14.00" fill="#cfffac">cube&#45;box/scales.ts</text>
</g>
<!-- cube&#45;box.ts&#45;&gt;cube&#45;box/scales.ts -->
<g id="edge4" class="edge">
<title>cube&#45;box.ts&#45;&gt;cube&#45;box/scales.ts</title>
<path fill="none" stroke="#757575" d="M214.4031,-62.8686C237.1997,-53.689 269.8738,-41.3122 299.3301,-33.0493 309.1915,-30.2831 319.6644,-27.7471 330.0482,-25.4677"/>
<polygon fill="#757575" stroke="#757575" points="330.9,-28.8649 339.9536,-23.3619 329.4443,-22.018 330.9,-28.8649"/>
</g>
<!-- cube&#45;box/audio&#45;engine/amplitude&#45;envelope.ts -->
<g id="node9" class="node">
<title>cube&#45;box/audio&#45;engine/amplitude&#45;envelope.ts</title>
<path fill="none" stroke="#cfffac" d="M1162.4318,-234.1482C1162.4318,-234.1482 878.9598,-234.1482 878.9598,-234.1482 874.9268,-234.1482 870.8939,-230.1152 870.8939,-226.0823 870.8939,-226.0823 870.8939,-218.0164 870.8939,-218.0164 870.8939,-213.9834 874.9268,-209.9505 878.9598,-209.9505 878.9598,-209.9505 1162.4318,-209.9505 1162.4318,-209.9505 1166.4648,-209.9505 1170.4977,-213.9834 1170.4977,-218.0164 1170.4977,-218.0164 1170.4977,-226.0823 1170.4977,-226.0823 1170.4977,-230.1152 1166.4648,-234.1482 1162.4318,-234.1482"/>
<text text-anchor="middle" x="1020.6958" y="-218.8986" font-family="Arial" font-size="14.00" fill="#cfffac">cube&#45;box/audio&#45;engine/amplitude&#45;envelope.ts</text>
</g>
<!-- cube&#45;box/audio&#45;engine.ts&#45;&gt;cube&#45;box/audio&#45;engine/amplitude&#45;envelope.ts -->
<g id="edge5" class="edge">
<title>cube&#45;box/audio&#45;engine.ts&#45;&gt;cube&#45;box/audio&#45;engine/amplitude&#45;envelope.ts</title>
<path fill="none" stroke="#757575" d="M716.9896,-150.1835C751.2502,-164.4994 811.2427,-187.9989 864.8242,-201.0493 876.0165,-203.7753 887.7531,-206.1732 899.5504,-208.277"/>
<polygon fill="#757575" stroke="#757575" points="899.0164,-211.7365 909.4639,-209.9758 900.1988,-204.837 899.0164,-211.7365"/>
</g>
<!-- cube&#45;box/audio&#45;engine/envelope&#45;filter.ts -->
<g id="node10" class="node">
<title>cube&#45;box/audio&#45;engine/envelope&#45;filter.ts</title>
<path fill="none" stroke="#cfffac" d="M1144.9045,-192.1482C1144.9045,-192.1482 896.4871,-192.1482 896.4871,-192.1482 892.4542,-192.1482 888.4212,-188.1152 888.4212,-184.0823 888.4212,-184.0823 888.4212,-176.0164 888.4212,-176.0164 888.4212,-171.9834 892.4542,-167.9505 896.4871,-167.9505 896.4871,-167.9505 1144.9045,-167.9505 1144.9045,-167.9505 1148.9374,-167.9505 1152.9704,-171.9834 1152.9704,-176.0164 1152.9704,-176.0164 1152.9704,-184.0823 1152.9704,-184.0823 1152.9704,-188.1152 1148.9374,-192.1482 1144.9045,-192.1482"/>
<text text-anchor="middle" x="1020.6958" y="-176.8986" font-family="Arial" font-size="14.00" fill="#cfffac">cube&#45;box/audio&#45;engine/envelope&#45;filter.ts</text>
</g>
<!-- cube&#45;box/audio&#45;engine.ts&#45;&gt;cube&#45;box/audio&#45;engine/envelope&#45;filter.ts -->
<g id="edge6" class="edge">
<title>cube&#45;box/audio&#45;engine.ts&#45;&gt;cube&#45;box/audio&#45;engine/envelope&#45;filter.ts</title>
<path fill="none" stroke="#757575" d="M775.6503,-149.0295C818.4014,-154.4412 870.3128,-161.0126 915.3321,-166.7115"/>
<polygon fill="#757575" stroke="#757575" points="915.0609,-170.205 925.4213,-167.9887 915.94,-163.2605 915.0609,-170.205"/>
</g>
<!-- cube&#45;box/audio&#45;engine/frequency&#45;modulation.ts -->
<g id="node11" class="node">
<title>cube&#45;box/audio&#45;engine/frequency&#45;modulation.ts</title>
<path fill="none" stroke="#cfffac" d="M1168.3732,-150.1482C1168.3732,-150.1482 873.0184,-150.1482 873.0184,-150.1482 868.9855,-150.1482 864.9525,-146.1152 864.9525,-142.0823 864.9525,-142.0823 864.9525,-134.0164 864.9525,-134.0164 864.9525,-129.9834 868.9855,-125.9505 873.0184,-125.9505 873.0184,-125.9505 1168.3732,-125.9505 1168.3732,-125.9505 1172.4061,-125.9505 1176.4391,-129.9834 1176.4391,-134.0164 1176.4391,-134.0164 1176.4391,-142.0823 1176.4391,-142.0823 1176.4391,-146.1152 1172.4061,-150.1482 1168.3732,-150.1482"/>
<text text-anchor="middle" x="1020.6958" y="-134.8986" font-family="Arial" font-size="14.00" fill="#cfffac">cube&#45;box/audio&#45;engine/frequency&#45;modulation.ts</text>
</g>
<!-- cube&#45;box/audio&#45;engine.ts&#45;&gt;cube&#45;box/audio&#45;engine/frequency&#45;modulation.ts -->
<g id="edge7" class="edge">
<title>cube&#45;box/audio&#45;engine.ts&#45;&gt;cube&#45;box/audio&#45;engine/frequency&#45;modulation.ts</title>
<path fill="none" stroke="#757575" d="M775.6503,-138.0493C800.018,-138.0493 827.3618,-138.0493 854.709,-138.0493"/>
<polygon fill="#757575" stroke="#757575" points="854.779,-141.5494 864.7789,-138.0493 854.7789,-134.5494 854.779,-141.5494"/>
</g>
<!-- cube&#45;box/audio&#45;engine/oscillator.ts -->
<g id="node12" class="node">
<title>cube&#45;box/audio&#45;engine/oscillator.ts</title>
<path fill="none" stroke="#cfffac" d="M1128.2084,-108.1482C1128.2084,-108.1482 913.1832,-108.1482 913.1832,-108.1482 909.1502,-108.1482 905.1173,-104.1152 905.1173,-100.0823 905.1173,-100.0823 905.1173,-92.0164 905.1173,-92.0164 905.1173,-87.9834 909.1502,-83.9505 913.1832,-83.9505 913.1832,-83.9505 1128.2084,-83.9505 1128.2084,-83.9505 1132.2414,-83.9505 1136.2743,-87.9834 1136.2743,-92.0164 1136.2743,-92.0164 1136.2743,-100.0823 1136.2743,-100.0823 1136.2743,-104.1152 1132.2414,-108.1482 1128.2084,-108.1482"/>
<text text-anchor="middle" x="1020.6958" y="-92.8986" font-family="Arial" font-size="14.00" fill="#cfffac">cube&#45;box/audio&#45;engine/oscillator.ts</text>
</g>
<!-- cube&#45;box/audio&#45;engine.ts&#45;&gt;cube&#45;box/audio&#45;engine/oscillator.ts -->
<g id="edge8" class="edge">
<title>cube&#45;box/audio&#45;engine.ts&#45;&gt;cube&#45;box/audio&#45;engine/oscillator.ts</title>
<path fill="none" stroke="#757575" d="M775.6503,-127.0692C818.4014,-121.6574 870.3128,-115.086 915.3321,-109.3871"/>
<polygon fill="#757575" stroke="#757575" points="915.94,-112.8382 925.4213,-108.1099 915.0609,-105.8936 915.94,-112.8382"/>
</g>
<!-- cube&#45;box/audio&#45;engine/velocity.ts -->
<g id="node13" class="node">
<title>cube&#45;box/audio&#45;engine/velocity.ts</title>
<path fill="none" stroke="#cfffac" d="M1123.883,-66.1482C1123.883,-66.1482 917.5086,-66.1482 917.5086,-66.1482 913.4757,-66.1482 909.4427,-62.1152 909.4427,-58.0823 909.4427,-58.0823 909.4427,-50.0164 909.4427,-50.0164 909.4427,-45.9834 913.4757,-41.9505 917.5086,-41.9505 917.5086,-41.9505 1123.883,-41.9505 1123.883,-41.9505 1127.9159,-41.9505 1131.9489,-45.9834 1131.9489,-50.0164 1131.9489,-50.0164 1131.9489,-58.0823 1131.9489,-58.0823 1131.9489,-62.1152 1127.9159,-66.1482 1123.883,-66.1482"/>
<text text-anchor="middle" x="1020.6958" y="-50.8986" font-family="Arial" font-size="14.00" fill="#cfffac">cube&#45;box/audio&#45;engine/velocity.ts</text>
</g>
<!-- cube&#45;box/audio&#45;engine.ts&#45;&gt;cube&#45;box/audio&#45;engine/velocity.ts -->
<g id="edge9" class="edge">
<title>cube&#45;box/audio&#45;engine.ts&#45;&gt;cube&#45;box/audio&#45;engine/velocity.ts</title>
<path fill="none" stroke="#757575" d="M775.6634,-134.7806C794.0246,-131.4679 812.707,-125.9713 828.8242,-117.0493 850.3339,-105.1423 843.2255,-86.794 864.8242,-75.0493 875.6134,-69.1825 887.4227,-64.729 899.5607,-61.3732"/>
<polygon fill="#757575" stroke="#757575" points="900.5078,-64.7442 909.3524,-58.9113 898.8008,-57.9554 900.5078,-64.7442"/>
</g>
<!-- cube&#45;box/composition&#45;engine.ts&#45;&gt;cube&#45;box/audio&#45;engine.ts -->
<g id="edge10" class="edge">
<title>cube&#45;box/composition&#45;engine.ts&#45;&gt;cube&#45;box/audio&#45;engine.ts</title>
<path fill="none" stroke="#757575" d="M487.5669,-108.1411C521.867,-113.2361 561.9486,-119.19 597.2796,-124.4381"/>
<polygon fill="#757575" stroke="#757575" points="597.1877,-127.9628 607.5934,-125.9702 598.2163,-121.0388 597.1877,-127.9628"/>
</g>
<!-- cube&#45;box/composition&#45;engine/note&#45;table.ts -->
<g id="node14" class="node">
<title>cube&#45;box/composition&#45;engine/note&#45;table.ts</title>
<path fill="none" stroke="#cfffac" d="M820.6715,-108.1482C820.6715,-108.1482 557.1508,-108.1482 557.1508,-108.1482 553.1179,-108.1482 549.0849,-104.1152 549.0849,-100.0823 549.0849,-100.0823 549.0849,-92.0164 549.0849,-92.0164 549.0849,-87.9834 553.1179,-83.9505 557.1508,-83.9505 557.1508,-83.9505 820.6715,-83.9505 820.6715,-83.9505 824.7044,-83.9505 828.7374,-87.9834 828.7374,-92.0164 828.7374,-92.0164 828.7374,-100.0823 828.7374,-100.0823 828.7374,-104.1152 824.7044,-108.1482 820.6715,-108.1482"/>
<text text-anchor="middle" x="688.9111" y="-92.8986" font-family="Arial" font-size="14.00" fill="#cfffac">cube&#45;box/composition&#45;engine/note&#45;table.ts</text>
</g>
<!-- cube&#45;box/composition&#45;engine.ts&#45;&gt;cube&#45;box/composition&#45;engine/note&#45;table.ts -->
<g id="edge11" class="edge">
<title>cube&#45;box/composition&#45;engine.ts&#45;&gt;cube&#45;box/composition&#45;engine/note&#45;table.ts</title>
<path fill="none" stroke="#757575" d="M513.0586,-96.0493C521.4887,-96.0493 530.093,-96.0493 538.7414,-96.0493"/>
<polygon fill="#757575" stroke="#757575" points="538.9063,-99.5494 548.9063,-96.0493 538.9063,-92.5494 538.9063,-99.5494"/>
</g>
<!-- cube&#45;box/composition&#45;engine/random.ts -->
<g id="node15" class="node">
<title>cube&#45;box/composition&#45;engine/random.ts</title>
<path fill="none" stroke="#cfffac" d="M813.3716,-66.1482C813.3716,-66.1482 564.4507,-66.1482 564.4507,-66.1482 560.4177,-66.1482 556.3848,-62.1152 556.3848,-58.0823 556.3848,-58.0823 556.3848,-50.0164 556.3848,-50.0164 556.3848,-45.9834 560.4177,-41.9505 564.4507,-41.9505 564.4507,-41.9505 813.3716,-41.9505 813.3716,-41.9505 817.4046,-41.9505 821.4375,-45.9834 821.4375,-50.0164 821.4375,-50.0164 821.4375,-58.0823 821.4375,-58.0823 821.4375,-62.1152 817.4046,-66.1482 813.3716,-66.1482"/>
<text text-anchor="middle" x="688.9111" y="-50.8986" font-family="Arial" font-size="14.00" fill="#cfffac">cube&#45;box/composition&#45;engine/random.ts</text>
</g>
<!-- cube&#45;box/composition&#45;engine.ts&#45;&gt;cube&#45;box/composition&#45;engine/random.ts -->
<g id="edge12" class="edge">
<title>cube&#45;box/composition&#45;engine.ts&#45;&gt;cube&#45;box/composition&#45;engine/random.ts</title>
<path fill="none" stroke="#757575" d="M487.5669,-83.9575C521.867,-78.8625 561.9486,-72.9087 597.2796,-67.6605"/>
<polygon fill="#757575" stroke="#757575" points="598.2163,-71.0599 607.5934,-66.1285 597.1877,-64.1358 598.2163,-71.0599"/>
</g>
<!-- cube&#45;box/graphics&#45;engine/square.ts -->
<g id="node16" class="node">
<title>cube&#45;box/graphics&#45;engine/square.ts</title>
<path fill="none" stroke="#cfffac" d="M799.9237,-24.1482C799.9237,-24.1482 577.8985,-24.1482 577.8985,-24.1482 573.8656,-24.1482 569.8326,-20.1152 569.8326,-16.0823 569.8326,-16.0823 569.8326,-8.0164 569.8326,-8.0164 569.8326,-3.9834 573.8656,.0495 577.8985,.0495 577.8985,.0495 799.9237,.0495 799.9237,.0495 803.9567,.0495 807.9896,-3.9834 807.9896,-8.0164 807.9896,-8.0164 807.9896,-16.0823 807.9896,-16.0823 807.9896,-20.1152 803.9567,-24.1482 799.9237,-24.1482"/>
<text text-anchor="middle" x="688.9111" y="-8.8986" font-family="Arial" font-size="14.00" fill="#cfffac">cube&#45;box/graphics&#45;engine/square.ts</text>
</g>
<!-- cube&#45;box/graphics&#45;engine.ts&#45;&gt;cube&#45;box/graphics&#45;engine/square.ts -->
<g id="edge13" class="edge">
<title>cube&#45;box/graphics&#45;engine.ts&#45;&gt;cube&#45;box/graphics&#45;engine/square.ts</title>
<path fill="none" stroke="#757575" d="M487.5669,-41.9575C521.867,-36.8625 561.9486,-30.9087 597.2796,-25.6605"/>
<polygon fill="#757575" stroke="#757575" points="598.2163,-29.0599 607.5934,-24.1285 597.1877,-22.1358 598.2163,-29.0599"/>
</g>
<!-- index.tsx -->
<g id="node17" class="node">
<title>index.tsx</title>
<path fill="none" stroke="#c6c5fe" d="M63.3066,-150.1482C63.3066,-150.1482 7.9414,-150.1482 7.9414,-150.1482 3.9085,-150.1482 -.1245,-146.1152 -.1245,-142.0823 -.1245,-142.0823 -.1245,-134.0164 -.1245,-134.0164 -.1245,-129.9834 3.9085,-125.9505 7.9414,-125.9505 7.9414,-125.9505 63.3066,-125.9505 63.3066,-125.9505 67.3396,-125.9505 71.3725,-129.9834 71.3725,-134.0164 71.3725,-134.0164 71.3725,-142.0823 71.3725,-142.0823 71.3725,-146.1152 67.3396,-150.1482 63.3066,-150.1482"/>
<text text-anchor="middle" x="35.624" y="-134.8986" font-family="Arial" font-size="14.00" fill="#c6c5fe">index.tsx</text>
</g>
<!-- index.tsx&#45;&gt;components/select.tsx -->
<g id="edge14" class="edge">
<title>index.tsx&#45;&gt;components/select.tsx</title>
<path fill="none" stroke="#757575" d="M53.1794,-150.1457C67.2695,-159.402 87.8359,-171.9195 107.248,-180.0493 112.2629,-182.1496 117.5477,-184.0951 122.9058,-185.8848"/>
<polygon fill="#757575" stroke="#757575" points="121.9973,-189.2681 132.587,-188.9373 124.1024,-182.5921 121.9973,-189.2681"/>
</g>
<!-- index.tsx&#45;&gt;components/slider.tsx -->
<g id="edge15" class="edge">
<title>index.tsx&#45;&gt;components/slider.tsx</title>
<path fill="none" stroke="#757575" d="M71.4725,-143.0793C80.2285,-144.3079 89.9724,-145.6751 99.9711,-147.0781"/>
<polygon fill="#757575" stroke="#757575" points="99.6381,-150.5656 110.0275,-148.4891 100.6109,-143.6335 99.6381,-150.5656"/>
</g>
<!-- index.tsx&#45;&gt;components/toggle.tsx -->
<g id="edge16" class="edge">
<title>index.tsx&#45;&gt;components/toggle.tsx</title>
<path fill="none" stroke="#757575" d="M71.4725,-133.0193C79.3265,-131.9173 87.9754,-130.7037 96.8901,-129.4529"/>
<polygon fill="#757575" stroke="#757575" points="97.6231,-132.8844 107.0397,-128.0287 96.6504,-125.9523 97.6231,-132.8844"/>
</g>
<!-- index.tsx&#45;&gt;cube&#45;box.ts -->
<g id="edge17" class="edge">
<title>index.tsx&#45;&gt;cube&#45;box.ts</title>
<path fill="none" stroke="#757575" d="M53.1794,-125.9529C67.2695,-116.6967 87.8359,-104.1792 107.248,-96.0493 114.7926,-92.8896 122.948,-90.08 131.0449,-87.6249"/>
<polygon fill="#757575" stroke="#757575" points="132.2039,-90.9335 140.8472,-84.8062 130.2694,-84.2061 132.2039,-90.9335"/>
</g>
</g>
</svg>
